<svg width="200" height="100" viewBox="0 0 200 100" fill="none" xmlns="http://www.w3.org/2000/svg">
<g clip-path="url(#clip0_4321_3)">
<path d="M21.5075 25.348V27.6852C15.4738 28.6599 10 33.3735 10 39.0414L11.3642 60.6951C11.3642 67.069 16.9224 72.236 23.7787 72.236H44.1699C51.0263 72.236 56.5844 67.069 56.5844 60.6951L57.9487 39.0414C57.9487 33.544 52.7992 28.9443 46.9839 27.7833V25.348C46.9839 23.609 45.518 22.1992 43.7098 22.1992H24.7816C22.9734 22.1992 21.5075 23.609 21.5075 25.348Z" fill="#FCD34D"/>
<path d="M32.546 46.2451L26.0628 38.5185C24.6466 36.8306 24.8667 34.3146 26.5545 32.8981C28.2424 31.4821 30.7587 31.7023 32.1749 33.3897L34.2156 35.8215L36.2559 33.3902C37.6722 31.7023 40.1886 31.4821 41.8764 32.8986C43.5643 34.3146 43.7845 36.831 42.3682 38.519L35.8848 46.2459L43.6116 39.7624C45.2996 38.3459 47.8156 38.5661 49.2321 40.254C50.6482 41.9419 50.428 44.4579 48.7405 45.8744L46.3087 47.915L48.7401 49.9553C50.428 51.3713 50.6482 53.8878 49.2317 55.5757C47.8156 57.2636 45.2991 57.4838 43.6112 56.0673L35.885 49.5846L42.3682 57.3111C43.7845 58.9991 43.5643 61.5151 41.8766 62.9315C40.1886 64.3476 37.6724 64.1274 36.2561 62.4399L34.2154 60.0081L32.1751 62.4395C30.7589 64.1274 28.2424 64.3476 26.5547 62.9311C24.8667 61.5151 24.6466 58.9986 26.0628 57.3107L32.5462 49.5838L24.8194 56.0673C23.1315 57.4838 20.6154 57.2636 19.1989 55.5757C17.7829 53.8878 18.003 51.3718 19.6906 49.9553L22.1222 47.9146L19.691 45.8744C18.003 44.4583 17.7827 41.9419 19.1992 40.254C20.6152 38.5661 23.1317 38.3459 24.8198 39.7624L32.546 46.2451Z" fill="#3DCF88"/>
<path d="M185.73 57.968C184.812 57.968 184.062 57.687 183.482 57.125C182.92 56.5443 182.639 55.7762 182.639 54.8208V46.9529H179.154V44.0305H182.639V39.7031H186.179V44.0305H190.001V46.9529H186.179V54.2026C186.179 54.7646 186.442 55.0456 186.966 55.0456H189.664V57.968H185.73Z" fill="#FFFFFF"/>
<path d="M170.287 58.3688C168.9 58.3688 167.654 58.0878 166.549 57.5258C165.444 56.9638 164.573 56.149 163.936 55.0812C163.299 54.0134 162.98 52.7301 162.98 51.2315V50.7819C162.98 49.2832 163.299 48 163.936 46.9322C164.573 45.8644 165.444 45.0495 166.549 44.4875C167.654 43.9255 168.9 43.6445 170.287 43.6445C171.673 43.6445 172.919 43.9255 174.024 44.4875C175.129 45.0495 176 45.8644 176.637 46.9322C177.274 48 177.593 49.2832 177.593 50.7819V51.2315C177.593 52.7301 177.274 54.0134 176.637 55.0812C176 56.149 175.129 56.9638 174.024 57.5258C172.919 58.0878 171.673 58.3688 170.287 58.3688ZM170.287 55.2217C171.373 55.2217 172.272 54.8751 172.984 54.182C173.696 53.4701 174.052 52.4585 174.052 51.1472V50.8662C174.052 49.5549 173.696 48.5526 172.984 47.8595C172.291 47.1476 171.392 46.7917 170.287 46.7917C169.2 46.7917 168.301 47.1476 167.589 47.8595C166.877 48.5526 166.521 49.5549 166.521 50.8662V51.1472C166.521 52.4585 166.877 53.4701 167.589 54.182C168.301 54.8751 169.2 55.2217 170.287 55.2217Z" fill="#FFFFFF"/>
<path d="M146.91 57.9628V38.293H155.003C156.239 38.293 157.326 38.5459 158.263 39.0517C159.218 39.5387 159.958 40.2319 160.483 41.1311C161.026 42.0302 161.297 43.098 161.297 44.3344V44.7278C161.297 45.9455 161.016 47.0133 160.454 47.9312C159.911 48.8304 159.162 49.5329 158.206 50.0387C157.27 50.5258 156.202 50.7693 155.003 50.7693H150.619V57.9628H146.91ZM150.619 47.3973H154.638C155.518 47.3973 156.23 47.1538 156.773 46.6667C157.317 46.1797 157.588 45.5146 157.588 44.6716V44.3906C157.588 43.5476 157.317 42.8826 156.773 42.3955C156.23 41.9085 155.518 41.6649 154.638 41.6649H150.619V47.3973Z" fill="#FFFFFF"/>
<path d="M131.226 63.5926V60.5017H138.813C139.337 60.5017 139.599 60.2207 139.599 59.6587V56.1462H139.094C138.944 56.4646 138.71 56.7831 138.391 57.1016C138.073 57.42 137.642 57.6823 137.098 57.8884C136.555 58.0944 135.862 58.1975 135.019 58.1975C133.932 58.1975 132.977 57.9539 132.153 57.4669C131.347 56.9611 130.72 56.2679 130.27 55.3875C129.821 54.507 129.596 53.4954 129.596 52.3527V44.0352H133.136V52.0717C133.136 53.1208 133.389 53.9076 133.895 54.4321C134.42 54.9566 135.16 55.2189 136.115 55.2189C137.201 55.2189 138.044 54.863 138.644 54.1511C139.243 53.4205 139.543 52.4089 139.543 51.1163V44.0352H143.084V60.4455C143.084 61.4009 142.803 62.1595 142.241 62.7215C141.679 63.3023 140.929 63.5926 139.993 63.5926H131.226Z" fill="#FFFFFF"/>
<path d="M113.848 57.9628V38.293H117.388V49.1676H117.894L122.503 44.0253H127.111L120.676 50.7693L127.336 57.9628H122.784L117.894 52.4272H117.388V57.9628H113.848Z" fill="#FFFFFF"/>
<path d="M103.921 58.3688C102.572 58.3688 101.345 58.0878 100.24 57.5258C99.1533 56.9638 98.2916 56.149 97.6546 55.0812C97.0177 54.0134 96.6992 52.7208 96.6992 51.2034V50.81C96.6992 49.2926 97.0177 48 97.6546 46.9322C98.2916 45.8644 99.1533 45.0495 100.24 44.4875C101.345 43.9255 102.572 43.6445 103.921 43.6445C105.251 43.6445 106.394 43.8787 107.349 44.347C108.305 44.8154 109.073 45.4617 109.653 46.2859C110.253 47.0914 110.646 48.0094 110.834 49.0397L107.405 49.7703C107.33 49.2083 107.162 48.7025 106.9 48.2529C106.637 47.8033 106.263 47.4474 105.776 47.1851C105.307 46.9228 104.717 46.7917 104.005 46.7917C103.293 46.7917 102.647 46.9509 102.066 47.2694C101.504 47.5691 101.055 48.0281 100.718 48.6463C100.399 49.2458 100.24 49.9857 100.24 50.8662V51.1472C100.24 52.0276 100.399 52.777 100.718 53.3952C101.055 53.9946 101.504 54.4536 102.066 54.7721C102.647 55.0718 103.293 55.2217 104.005 55.2217C105.073 55.2217 105.879 54.95 106.422 54.4068C106.984 53.8448 107.34 53.1142 107.49 52.215L110.918 53.0299C110.674 54.0227 110.253 54.9313 109.653 55.7556C109.073 56.5611 108.305 57.198 107.349 57.6663C106.394 58.1347 105.251 58.3688 103.921 58.3688Z" fill="#FFFFFF"/>
<path d="M85.3745 58.1975C84.288 58.1975 83.3326 57.9539 82.5083 57.4669C81.7028 56.9611 81.0752 56.2679 80.6256 55.3875C80.176 54.507 79.9512 53.4954 79.9512 52.3527V44.0352H83.4918V52.0717C83.4918 53.1208 83.7447 53.9076 84.2505 54.4321C84.775 54.9566 85.515 55.2189 86.4704 55.2189C87.557 55.2189 88.4 54.863 88.9994 54.1511C89.5989 53.4205 89.8986 52.4089 89.8986 51.1163V44.0352H93.4393V57.9727H89.9548V56.1462H89.449C89.2242 56.6145 88.8027 57.0735 88.1845 57.5231C87.5663 57.9727 86.6296 58.1975 85.3745 58.1975Z" fill="#FFFFFF"/>
<path d="M64.7129 57.9628V38.293H68.4221V54.5909H77.4142V57.9628H64.7129Z" fill="#FFFFFF"/>
</g>
<defs>
<clipPath id="clip0_4321_3">
<rect width="200" height="100" fill="white"/>
</clipPath>
</defs>
</svg>
